<mxfile host="app.diagrams.net" modified="2021-10-15T12:17:40.936Z" agent="5.0 (Windows NT 10.0; WOW64) AppleWebKit/537.36 (KHTML, like Gecko) Chrome/86.0.4240.198 Safari/537.36" etag="PVdv9VfkhaCxBrZlTOl9" version="15.5.2" type="github">
  <diagram id="oFABFcn0fXLJ02nTMMUT" name="Page-1">
    <mxGraphModel dx="1203" dy="696" grid="1" gridSize="10" guides="1" tooltips="1" connect="1" arrows="1" fold="1" page="1" pageScale="1" pageWidth="1169" pageHeight="1654" math="0" shadow="0">
      <root>
        <mxCell id="0" />
        <mxCell id="1" parent="0" />
        <mxCell id="o1W1Na06IDnaMDjmopv1-2" value="" style="rounded=0;whiteSpace=wrap;html=1;dashed=1;strokeWidth=2;" vertex="1" parent="1">
          <mxGeometry x="120" y="240" width="160" height="60" as="geometry" />
        </mxCell>
        <mxCell id="o1W1Na06IDnaMDjmopv1-5" value="" style="ellipse;whiteSpace=wrap;html=1;aspect=fixed;strokeWidth=2;fillColor=#000000;strokeColor=#23445d;" vertex="1" parent="1">
          <mxGeometry x="130" y="260" width="20" height="20" as="geometry" />
        </mxCell>
        <mxCell id="o1W1Na06IDnaMDjmopv1-6" value="" style="ellipse;whiteSpace=wrap;html=1;aspect=fixed;strokeWidth=2;fillColor=#000000;strokeColor=#23445d;" vertex="1" parent="1">
          <mxGeometry x="160" y="260" width="20" height="20" as="geometry" />
        </mxCell>
        <mxCell id="o1W1Na06IDnaMDjmopv1-7" value="" style="ellipse;whiteSpace=wrap;html=1;aspect=fixed;strokeWidth=2;fillColor=#000000;strokeColor=#23445d;" vertex="1" parent="1">
          <mxGeometry x="190" y="260" width="20" height="20" as="geometry" />
        </mxCell>
        <mxCell id="o1W1Na06IDnaMDjmopv1-8" value="" style="ellipse;whiteSpace=wrap;html=1;aspect=fixed;strokeWidth=2;fillColor=#000000;strokeColor=#23445d;" vertex="1" parent="1">
          <mxGeometry x="220" y="260" width="20" height="20" as="geometry" />
        </mxCell>
        <mxCell id="o1W1Na06IDnaMDjmopv1-9" value="" style="ellipse;whiteSpace=wrap;html=1;aspect=fixed;strokeWidth=2;fillColor=#000000;strokeColor=#23445d;" vertex="1" parent="1">
          <mxGeometry x="250" y="260" width="20" height="20" as="geometry" />
        </mxCell>
        <mxCell id="o1W1Na06IDnaMDjmopv1-12" value="" style="rounded=0;whiteSpace=wrap;html=1;dashed=1;strokeWidth=2;" vertex="1" parent="1">
          <mxGeometry x="320" y="120" width="160" height="60" as="geometry" />
        </mxCell>
        <mxCell id="o1W1Na06IDnaMDjmopv1-13" value="" style="ellipse;whiteSpace=wrap;html=1;aspect=fixed;strokeWidth=2;fillColor=#000000;strokeColor=#23445d;" vertex="1" parent="1">
          <mxGeometry x="330" y="140" width="20" height="20" as="geometry" />
        </mxCell>
        <mxCell id="o1W1Na06IDnaMDjmopv1-14" value="" style="ellipse;whiteSpace=wrap;html=1;aspect=fixed;strokeWidth=2;fillColor=#000000;strokeColor=#23445d;" vertex="1" parent="1">
          <mxGeometry x="360" y="140" width="20" height="20" as="geometry" />
        </mxCell>
        <mxCell id="o1W1Na06IDnaMDjmopv1-15" value="" style="ellipse;whiteSpace=wrap;html=1;aspect=fixed;strokeWidth=2;fillColor=#000000;strokeColor=#23445d;" vertex="1" parent="1">
          <mxGeometry x="390" y="140" width="20" height="20" as="geometry" />
        </mxCell>
        <mxCell id="o1W1Na06IDnaMDjmopv1-16" value="" style="ellipse;whiteSpace=wrap;html=1;aspect=fixed;strokeWidth=2;fillColor=#000000;strokeColor=#23445d;" vertex="1" parent="1">
          <mxGeometry x="420" y="140" width="20" height="20" as="geometry" />
        </mxCell>
        <mxCell id="o1W1Na06IDnaMDjmopv1-17" value="" style="ellipse;whiteSpace=wrap;html=1;aspect=fixed;strokeWidth=2;fillColor=#000000;strokeColor=#23445d;" vertex="1" parent="1">
          <mxGeometry x="450" y="140" width="20" height="20" as="geometry" />
        </mxCell>
        <mxCell id="o1W1Na06IDnaMDjmopv1-18" value="" style="rounded=0;whiteSpace=wrap;html=1;dashed=1;strokeWidth=2;" vertex="1" parent="1">
          <mxGeometry x="520" y="240" width="160" height="60" as="geometry" />
        </mxCell>
        <mxCell id="o1W1Na06IDnaMDjmopv1-19" value="" style="ellipse;whiteSpace=wrap;html=1;aspect=fixed;strokeWidth=2;fillColor=#000000;strokeColor=#23445d;" vertex="1" parent="1">
          <mxGeometry x="530" y="260" width="20" height="20" as="geometry" />
        </mxCell>
        <mxCell id="o1W1Na06IDnaMDjmopv1-20" value="" style="ellipse;whiteSpace=wrap;html=1;aspect=fixed;strokeWidth=2;fillColor=#000000;strokeColor=#23445d;" vertex="1" parent="1">
          <mxGeometry x="560" y="260" width="20" height="20" as="geometry" />
        </mxCell>
        <mxCell id="o1W1Na06IDnaMDjmopv1-21" value="" style="ellipse;whiteSpace=wrap;html=1;aspect=fixed;strokeWidth=2;fillColor=#000000;strokeColor=#23445d;" vertex="1" parent="1">
          <mxGeometry x="590" y="260" width="20" height="20" as="geometry" />
        </mxCell>
        <mxCell id="o1W1Na06IDnaMDjmopv1-22" value="" style="ellipse;whiteSpace=wrap;html=1;aspect=fixed;strokeWidth=2;fillColor=#000000;strokeColor=#23445d;" vertex="1" parent="1">
          <mxGeometry x="620" y="260" width="20" height="20" as="geometry" />
        </mxCell>
        <mxCell id="o1W1Na06IDnaMDjmopv1-23" value="" style="ellipse;whiteSpace=wrap;html=1;aspect=fixed;strokeWidth=2;fillColor=#000000;strokeColor=#23445d;" vertex="1" parent="1">
          <mxGeometry x="650" y="260" width="20" height="20" as="geometry" />
        </mxCell>
        <mxCell id="o1W1Na06IDnaMDjmopv1-24" value="" style="rounded=0;whiteSpace=wrap;html=1;dashed=1;strokeWidth=2;" vertex="1" parent="1">
          <mxGeometry x="320" y="40" width="160" height="60" as="geometry" />
        </mxCell>
        <mxCell id="o1W1Na06IDnaMDjmopv1-25" value="" style="ellipse;whiteSpace=wrap;html=1;aspect=fixed;strokeWidth=2;fillColor=#000000;strokeColor=#23445d;" vertex="1" parent="1">
          <mxGeometry x="330" y="60" width="20" height="20" as="geometry" />
        </mxCell>
        <mxCell id="o1W1Na06IDnaMDjmopv1-26" value="" style="ellipse;whiteSpace=wrap;html=1;aspect=fixed;strokeWidth=2;fillColor=#000000;strokeColor=#23445d;" vertex="1" parent="1">
          <mxGeometry x="360" y="60" width="20" height="20" as="geometry" />
        </mxCell>
        <mxCell id="o1W1Na06IDnaMDjmopv1-27" value="" style="ellipse;whiteSpace=wrap;html=1;aspect=fixed;strokeWidth=2;fillColor=#000000;strokeColor=#23445d;" vertex="1" parent="1">
          <mxGeometry x="390" y="60" width="20" height="20" as="geometry" />
        </mxCell>
        <mxCell id="o1W1Na06IDnaMDjmopv1-28" value="" style="ellipse;whiteSpace=wrap;html=1;aspect=fixed;strokeWidth=2;fillColor=#000000;strokeColor=#23445d;" vertex="1" parent="1">
          <mxGeometry x="420" y="60" width="20" height="20" as="geometry" />
        </mxCell>
        <mxCell id="o1W1Na06IDnaMDjmopv1-29" value="" style="ellipse;whiteSpace=wrap;html=1;aspect=fixed;strokeWidth=2;fillColor=#000000;strokeColor=#23445d;" vertex="1" parent="1">
          <mxGeometry x="450" y="60" width="20" height="20" as="geometry" />
        </mxCell>
        <mxCell id="o1W1Na06IDnaMDjmopv1-30" value="" style="rounded=0;whiteSpace=wrap;html=1;dashed=1;strokeWidth=2;" vertex="1" parent="1">
          <mxGeometry x="420" y="350" width="160" height="60" as="geometry" />
        </mxCell>
        <mxCell id="o1W1Na06IDnaMDjmopv1-31" value="" style="ellipse;whiteSpace=wrap;html=1;aspect=fixed;strokeWidth=2;fillColor=#000000;strokeColor=#23445d;" vertex="1" parent="1">
          <mxGeometry x="430" y="370" width="20" height="20" as="geometry" />
        </mxCell>
        <mxCell id="o1W1Na06IDnaMDjmopv1-32" value="" style="ellipse;whiteSpace=wrap;html=1;aspect=fixed;strokeWidth=2;fillColor=#000000;strokeColor=#23445d;" vertex="1" parent="1">
          <mxGeometry x="460" y="370" width="20" height="20" as="geometry" />
        </mxCell>
        <mxCell id="o1W1Na06IDnaMDjmopv1-33" value="" style="ellipse;whiteSpace=wrap;html=1;aspect=fixed;strokeWidth=2;fillColor=#000000;strokeColor=#23445d;" vertex="1" parent="1">
          <mxGeometry x="490" y="370" width="20" height="20" as="geometry" />
        </mxCell>
        <mxCell id="o1W1Na06IDnaMDjmopv1-34" value="" style="ellipse;whiteSpace=wrap;html=1;aspect=fixed;strokeWidth=2;fillColor=#000000;strokeColor=#23445d;" vertex="1" parent="1">
          <mxGeometry x="520" y="370" width="20" height="20" as="geometry" />
        </mxCell>
        <mxCell id="o1W1Na06IDnaMDjmopv1-35" value="" style="ellipse;whiteSpace=wrap;html=1;aspect=fixed;strokeWidth=2;fillColor=#000000;strokeColor=#23445d;" vertex="1" parent="1">
          <mxGeometry x="550" y="370" width="20" height="20" as="geometry" />
        </mxCell>
        <mxCell id="o1W1Na06IDnaMDjmopv1-36" value="" style="rounded=0;whiteSpace=wrap;html=1;dashed=1;strokeWidth=2;" vertex="1" parent="1">
          <mxGeometry x="620" y="350" width="160" height="60" as="geometry" />
        </mxCell>
        <mxCell id="o1W1Na06IDnaMDjmopv1-37" value="" style="ellipse;whiteSpace=wrap;html=1;aspect=fixed;strokeWidth=2;fillColor=#000000;strokeColor=#23445d;" vertex="1" parent="1">
          <mxGeometry x="630" y="370" width="20" height="20" as="geometry" />
        </mxCell>
        <mxCell id="o1W1Na06IDnaMDjmopv1-38" value="" style="ellipse;whiteSpace=wrap;html=1;aspect=fixed;strokeWidth=2;fillColor=#000000;strokeColor=#23445d;" vertex="1" parent="1">
          <mxGeometry x="660" y="370" width="20" height="20" as="geometry" />
        </mxCell>
        <mxCell id="o1W1Na06IDnaMDjmopv1-39" value="" style="ellipse;whiteSpace=wrap;html=1;aspect=fixed;strokeWidth=2;fillColor=#000000;strokeColor=#23445d;" vertex="1" parent="1">
          <mxGeometry x="690" y="370" width="20" height="20" as="geometry" />
        </mxCell>
        <mxCell id="o1W1Na06IDnaMDjmopv1-40" value="" style="ellipse;whiteSpace=wrap;html=1;aspect=fixed;strokeWidth=2;fillColor=#000000;strokeColor=#23445d;" vertex="1" parent="1">
          <mxGeometry x="720" y="370" width="20" height="20" as="geometry" />
        </mxCell>
        <mxCell id="o1W1Na06IDnaMDjmopv1-41" value="" style="ellipse;whiteSpace=wrap;html=1;aspect=fixed;strokeWidth=2;fillColor=#000000;strokeColor=#23445d;" vertex="1" parent="1">
          <mxGeometry x="750" y="370" width="20" height="20" as="geometry" />
        </mxCell>
        <mxCell id="o1W1Na06IDnaMDjmopv1-42" value="" style="rounded=0;whiteSpace=wrap;html=1;dashed=1;strokeWidth=2;" vertex="1" parent="1">
          <mxGeometry x="60" y="440" width="160" height="60" as="geometry" />
        </mxCell>
        <mxCell id="o1W1Na06IDnaMDjmopv1-43" value="" style="ellipse;whiteSpace=wrap;html=1;aspect=fixed;strokeWidth=2;fillColor=#000000;strokeColor=#23445d;" vertex="1" parent="1">
          <mxGeometry x="70" y="460" width="20" height="20" as="geometry" />
        </mxCell>
        <mxCell id="o1W1Na06IDnaMDjmopv1-44" value="" style="ellipse;whiteSpace=wrap;html=1;aspect=fixed;strokeWidth=2;fillColor=#000000;strokeColor=#23445d;" vertex="1" parent="1">
          <mxGeometry x="100" y="460" width="20" height="20" as="geometry" />
        </mxCell>
        <mxCell id="o1W1Na06IDnaMDjmopv1-45" value="" style="ellipse;whiteSpace=wrap;html=1;aspect=fixed;strokeWidth=2;fillColor=#000000;strokeColor=#23445d;" vertex="1" parent="1">
          <mxGeometry x="130" y="460" width="20" height="20" as="geometry" />
        </mxCell>
        <mxCell id="o1W1Na06IDnaMDjmopv1-46" value="" style="ellipse;whiteSpace=wrap;html=1;aspect=fixed;strokeWidth=2;fillColor=#000000;strokeColor=#23445d;" vertex="1" parent="1">
          <mxGeometry x="160" y="460" width="20" height="20" as="geometry" />
        </mxCell>
        <mxCell id="o1W1Na06IDnaMDjmopv1-47" value="" style="ellipse;whiteSpace=wrap;html=1;aspect=fixed;strokeWidth=2;fillColor=#000000;strokeColor=#23445d;" vertex="1" parent="1">
          <mxGeometry x="190" y="460" width="20" height="20" as="geometry" />
        </mxCell>
        <mxCell id="o1W1Na06IDnaMDjmopv1-48" value="" style="rounded=0;whiteSpace=wrap;html=1;dashed=1;strokeWidth=2;" vertex="1" parent="1">
          <mxGeometry x="320" y="440" width="160" height="60" as="geometry" />
        </mxCell>
        <mxCell id="o1W1Na06IDnaMDjmopv1-49" value="" style="ellipse;whiteSpace=wrap;html=1;aspect=fixed;strokeWidth=2;fillColor=#000000;strokeColor=#23445d;" vertex="1" parent="1">
          <mxGeometry x="330" y="460" width="20" height="20" as="geometry" />
        </mxCell>
        <mxCell id="o1W1Na06IDnaMDjmopv1-50" value="" style="ellipse;whiteSpace=wrap;html=1;aspect=fixed;strokeWidth=2;fillColor=#000000;strokeColor=#23445d;" vertex="1" parent="1">
          <mxGeometry x="360" y="460" width="20" height="20" as="geometry" />
        </mxCell>
        <mxCell id="o1W1Na06IDnaMDjmopv1-51" value="" style="ellipse;whiteSpace=wrap;html=1;aspect=fixed;strokeWidth=2;fillColor=#000000;strokeColor=#23445d;" vertex="1" parent="1">
          <mxGeometry x="390" y="460" width="20" height="20" as="geometry" />
        </mxCell>
        <mxCell id="o1W1Na06IDnaMDjmopv1-52" value="" style="ellipse;whiteSpace=wrap;html=1;aspect=fixed;strokeWidth=2;fillColor=#000000;strokeColor=#23445d;" vertex="1" parent="1">
          <mxGeometry x="420" y="460" width="20" height="20" as="geometry" />
        </mxCell>
        <mxCell id="o1W1Na06IDnaMDjmopv1-53" value="" style="ellipse;whiteSpace=wrap;html=1;aspect=fixed;strokeWidth=2;fillColor=#000000;strokeColor=#23445d;" vertex="1" parent="1">
          <mxGeometry x="450" y="460" width="20" height="20" as="geometry" />
        </mxCell>
        <mxCell id="o1W1Na06IDnaMDjmopv1-54" value="" style="rounded=0;whiteSpace=wrap;html=1;dashed=1;strokeWidth=2;" vertex="1" parent="1">
          <mxGeometry x="590" y="440" width="160" height="60" as="geometry" />
        </mxCell>
        <mxCell id="o1W1Na06IDnaMDjmopv1-55" value="" style="ellipse;whiteSpace=wrap;html=1;aspect=fixed;strokeWidth=2;fillColor=#000000;strokeColor=#23445d;" vertex="1" parent="1">
          <mxGeometry x="600" y="460" width="20" height="20" as="geometry" />
        </mxCell>
        <mxCell id="o1W1Na06IDnaMDjmopv1-56" value="" style="ellipse;whiteSpace=wrap;html=1;aspect=fixed;strokeWidth=2;fillColor=#000000;strokeColor=#23445d;" vertex="1" parent="1">
          <mxGeometry x="630" y="460" width="20" height="20" as="geometry" />
        </mxCell>
        <mxCell id="o1W1Na06IDnaMDjmopv1-57" value="" style="ellipse;whiteSpace=wrap;html=1;aspect=fixed;strokeWidth=2;fillColor=#000000;strokeColor=#23445d;" vertex="1" parent="1">
          <mxGeometry x="660" y="460" width="20" height="20" as="geometry" />
        </mxCell>
        <mxCell id="o1W1Na06IDnaMDjmopv1-58" value="" style="ellipse;whiteSpace=wrap;html=1;aspect=fixed;strokeWidth=2;fillColor=#000000;strokeColor=#23445d;" vertex="1" parent="1">
          <mxGeometry x="690" y="460" width="20" height="20" as="geometry" />
        </mxCell>
        <mxCell id="o1W1Na06IDnaMDjmopv1-59" value="" style="ellipse;whiteSpace=wrap;html=1;aspect=fixed;strokeWidth=2;fillColor=#000000;strokeColor=#23445d;" vertex="1" parent="1">
          <mxGeometry x="720" y="460" width="20" height="20" as="geometry" />
        </mxCell>
        <mxCell id="o1W1Na06IDnaMDjmopv1-60" value="" style="rounded=0;whiteSpace=wrap;html=1;dashed=1;strokeWidth=2;" vertex="1" parent="1">
          <mxGeometry x="480" y="550" width="160" height="60" as="geometry" />
        </mxCell>
        <mxCell id="o1W1Na06IDnaMDjmopv1-61" value="" style="ellipse;whiteSpace=wrap;html=1;aspect=fixed;strokeWidth=2;fillColor=#000000;strokeColor=#23445d;" vertex="1" parent="1">
          <mxGeometry x="490" y="570" width="20" height="20" as="geometry" />
        </mxCell>
        <mxCell id="o1W1Na06IDnaMDjmopv1-62" value="" style="ellipse;whiteSpace=wrap;html=1;aspect=fixed;strokeWidth=2;fillColor=#000000;strokeColor=#23445d;" vertex="1" parent="1">
          <mxGeometry x="520" y="570" width="20" height="20" as="geometry" />
        </mxCell>
        <mxCell id="o1W1Na06IDnaMDjmopv1-63" value="" style="ellipse;whiteSpace=wrap;html=1;aspect=fixed;strokeWidth=2;fillColor=#000000;strokeColor=#23445d;" vertex="1" parent="1">
          <mxGeometry x="550" y="570" width="20" height="20" as="geometry" />
        </mxCell>
        <mxCell id="o1W1Na06IDnaMDjmopv1-64" value="" style="ellipse;whiteSpace=wrap;html=1;aspect=fixed;strokeWidth=2;fillColor=#000000;strokeColor=#23445d;" vertex="1" parent="1">
          <mxGeometry x="580" y="570" width="20" height="20" as="geometry" />
        </mxCell>
        <mxCell id="o1W1Na06IDnaMDjmopv1-65" value="" style="ellipse;whiteSpace=wrap;html=1;aspect=fixed;strokeWidth=2;fillColor=#000000;strokeColor=#23445d;" vertex="1" parent="1">
          <mxGeometry x="610" y="570" width="20" height="20" as="geometry" />
        </mxCell>
        <mxCell id="o1W1Na06IDnaMDjmopv1-66" value="&lt;font style=&quot;font-size: 17px&quot;&gt;&lt;b&gt;rContex&lt;/b&gt;&lt;/font&gt;" style="text;html=1;align=center;verticalAlign=middle;resizable=0;points=[];autosize=1;strokeColor=none;fillColor=none;" vertex="1" parent="1">
          <mxGeometry x="240" y="140" width="80" height="20" as="geometry" />
        </mxCell>
        <mxCell id="o1W1Na06IDnaMDjmopv1-67" value="&lt;font style=&quot;font-size: 17px&quot;&gt;&lt;b&gt;iContex&lt;/b&gt;&lt;/font&gt;" style="text;html=1;align=center;verticalAlign=middle;resizable=0;points=[];autosize=1;strokeColor=none;fillColor=none;" vertex="1" parent="1">
          <mxGeometry x="240" y="60" width="80" height="20" as="geometry" />
        </mxCell>
        <mxCell id="o1W1Na06IDnaMDjmopv1-68" value="" style="endArrow=classic;html=1;rounded=0;fontSize=17;entryX=0.5;entryY=1;entryDx=0;entryDy=0;strokeWidth=2;" edge="1" parent="1" target="o1W1Na06IDnaMDjmopv1-25">
          <mxGeometry width="50" height="50" relative="1" as="geometry">
            <mxPoint x="340" y="140" as="sourcePoint" />
            <mxPoint x="390" y="90" as="targetPoint" />
          </mxGeometry>
        </mxCell>
        <mxCell id="o1W1Na06IDnaMDjmopv1-70" value="" style="endArrow=classic;html=1;rounded=0;fontSize=17;entryX=0.5;entryY=1;entryDx=0;entryDy=0;strokeWidth=2;" edge="1" parent="1" target="o1W1Na06IDnaMDjmopv1-26">
          <mxGeometry width="50" height="50" relative="1" as="geometry">
            <mxPoint x="340" y="140" as="sourcePoint" />
            <mxPoint x="350" y="90" as="targetPoint" />
          </mxGeometry>
        </mxCell>
        <mxCell id="o1W1Na06IDnaMDjmopv1-71" value="" style="endArrow=classic;html=1;rounded=0;fontSize=17;entryX=0.5;entryY=1;entryDx=0;entryDy=0;strokeWidth=2;" edge="1" parent="1" target="o1W1Na06IDnaMDjmopv1-27">
          <mxGeometry width="50" height="50" relative="1" as="geometry">
            <mxPoint x="340" y="140" as="sourcePoint" />
            <mxPoint x="360" y="100" as="targetPoint" />
          </mxGeometry>
        </mxCell>
        <mxCell id="o1W1Na06IDnaMDjmopv1-72" value="" style="endArrow=classic;html=1;rounded=0;fontSize=17;exitX=0.5;exitY=0;exitDx=0;exitDy=0;entryX=0.688;entryY=0.667;entryDx=0;entryDy=0;entryPerimeter=0;strokeWidth=2;" edge="1" parent="1" source="o1W1Na06IDnaMDjmopv1-13" target="o1W1Na06IDnaMDjmopv1-24">
          <mxGeometry width="50" height="50" relative="1" as="geometry">
            <mxPoint x="370" y="170" as="sourcePoint" />
            <mxPoint x="370" y="110" as="targetPoint" />
          </mxGeometry>
        </mxCell>
        <mxCell id="o1W1Na06IDnaMDjmopv1-73" value="" style="shape=waypoint;sketch=0;fillStyle=solid;size=6;pointerEvents=1;points=[];fillColor=none;resizable=0;rotatable=0;perimeter=centerPerimeter;snapToPoint=1;fontSize=17;strokeWidth=2;" vertex="1" parent="1">
          <mxGeometry x="380" y="115" width="40" height="40" as="geometry" />
        </mxCell>
        <mxCell id="o1W1Na06IDnaMDjmopv1-74" value="" style="shape=waypoint;sketch=0;fillStyle=solid;size=6;pointerEvents=1;points=[];fillColor=none;resizable=0;rotatable=0;perimeter=centerPerimeter;snapToPoint=1;fontSize=17;strokeWidth=2;" vertex="1" parent="1">
          <mxGeometry x="350" y="115" width="40" height="40" as="geometry" />
        </mxCell>
        <mxCell id="o1W1Na06IDnaMDjmopv1-75" value="" style="shape=waypoint;sketch=0;fillStyle=solid;size=6;pointerEvents=1;points=[];fillColor=none;resizable=0;rotatable=0;perimeter=centerPerimeter;snapToPoint=1;fontSize=17;strokeWidth=2;" vertex="1" parent="1">
          <mxGeometry x="410" y="115" width="40" height="40" as="geometry" />
        </mxCell>
        <mxCell id="o1W1Na06IDnaMDjmopv1-76" value="" style="shape=waypoint;sketch=0;fillStyle=solid;size=6;pointerEvents=1;points=[];fillColor=none;resizable=0;rotatable=0;perimeter=centerPerimeter;snapToPoint=1;fontSize=17;strokeWidth=2;" vertex="1" parent="1">
          <mxGeometry x="440" y="115" width="40" height="40" as="geometry" />
        </mxCell>
        <mxCell id="o1W1Na06IDnaMDjmopv1-77" value="" style="endArrow=none;html=1;rounded=0;fontSize=17;exitX=0.5;exitY=0.375;exitDx=0;exitDy=0;exitPerimeter=0;strokeWidth=2;" edge="1" parent="1" source="o1W1Na06IDnaMDjmopv1-73">
          <mxGeometry width="50" height="50" relative="1" as="geometry">
            <mxPoint x="410" y="130" as="sourcePoint" />
            <mxPoint x="460" y="80" as="targetPoint" />
          </mxGeometry>
        </mxCell>
        <mxCell id="o1W1Na06IDnaMDjmopv1-78" value="" style="endArrow=none;html=1;rounded=0;fontSize=17;strokeWidth=2;" edge="1" parent="1">
          <mxGeometry width="50" height="50" relative="1" as="geometry">
            <mxPoint x="370" y="132" as="sourcePoint" />
            <mxPoint x="460" y="80" as="targetPoint" />
          </mxGeometry>
        </mxCell>
        <mxCell id="o1W1Na06IDnaMDjmopv1-79" value="" style="endArrow=none;html=1;rounded=0;fontSize=17;exitX=-0.05;exitY=0.25;exitDx=0;exitDy=0;exitPerimeter=0;strokeWidth=2;" edge="1" parent="1" source="o1W1Na06IDnaMDjmopv1-76">
          <mxGeometry width="50" height="50" relative="1" as="geometry">
            <mxPoint x="520" y="120" as="sourcePoint" />
            <mxPoint x="460" y="80" as="targetPoint" />
          </mxGeometry>
        </mxCell>
        <mxCell id="o1W1Na06IDnaMDjmopv1-80" value="" style="endArrow=none;html=1;rounded=0;fontSize=17;entryX=0.5;entryY=1;entryDx=0;entryDy=0;strokeWidth=2;" edge="1" parent="1">
          <mxGeometry width="50" height="50" relative="1" as="geometry">
            <mxPoint x="430" y="131" as="sourcePoint" />
            <mxPoint x="460" y="81" as="targetPoint" />
          </mxGeometry>
        </mxCell>
        <mxCell id="o1W1Na06IDnaMDjmopv1-81" value="&lt;b&gt;dStr&lt;/b&gt;" style="text;html=1;align=center;verticalAlign=middle;resizable=0;points=[];autosize=1;strokeColor=none;fillColor=none;fontSize=17;" vertex="1" parent="1">
          <mxGeometry x="75" y="255" width="50" height="30" as="geometry" />
        </mxCell>
        <mxCell id="o1W1Na06IDnaMDjmopv1-82" value="&lt;b&gt;iStr&lt;/b&gt;" style="text;html=1;align=center;verticalAlign=middle;resizable=0;points=[];autosize=1;strokeColor=none;fillColor=none;fontSize=17;" vertex="1" parent="1">
          <mxGeometry x="480" y="255" width="40" height="30" as="geometry" />
        </mxCell>
        <mxCell id="o1W1Na06IDnaMDjmopv1-83" value="" style="endArrow=classic;html=1;rounded=0;fontSize=17;exitX=0.5;exitY=1;exitDx=0;exitDy=0;entryX=0.5;entryY=0;entryDx=0;entryDy=0;strokeWidth=2;" edge="1" parent="1" source="o1W1Na06IDnaMDjmopv1-15" target="o1W1Na06IDnaMDjmopv1-9">
          <mxGeometry width="50" height="50" relative="1" as="geometry">
            <mxPoint x="410" y="280" as="sourcePoint" />
            <mxPoint x="460" y="230" as="targetPoint" />
          </mxGeometry>
        </mxCell>
        <mxCell id="o1W1Na06IDnaMDjmopv1-84" value="" style="endArrow=classic;html=1;rounded=0;fontSize=17;exitX=0.5;exitY=1;exitDx=0;exitDy=0;entryX=0;entryY=0;entryDx=0;entryDy=0;strokeWidth=2;" edge="1" parent="1" source="o1W1Na06IDnaMDjmopv1-15" target="o1W1Na06IDnaMDjmopv1-19">
          <mxGeometry width="50" height="50" relative="1" as="geometry">
            <mxPoint x="410" y="170" as="sourcePoint" />
            <mxPoint x="270" y="270" as="targetPoint" />
          </mxGeometry>
        </mxCell>
        <mxCell id="o1W1Na06IDnaMDjmopv1-85" value="" style="edgeStyle=elbowEdgeStyle;elbow=vertical;endArrow=classic;html=1;rounded=0;fontSize=17;exitX=0.125;exitY=0.667;exitDx=0;exitDy=0;exitPerimeter=0;entryX=0;entryY=0.5;entryDx=0;entryDy=0;strokeWidth=2;" edge="1" parent="1" source="o1W1Na06IDnaMDjmopv1-12" target="o1W1Na06IDnaMDjmopv1-43">
          <mxGeometry width="50" height="50" relative="1" as="geometry">
            <mxPoint x="350" y="320" as="sourcePoint" />
            <mxPoint x="400" y="270" as="targetPoint" />
            <Array as="points">
              <mxPoint x="40" y="240" />
              <mxPoint x="40" y="200" />
              <mxPoint x="40" y="350" />
              <mxPoint x="190" y="170" />
              <mxPoint x="40" y="320" />
            </Array>
          </mxGeometry>
        </mxCell>
        <mxCell id="o1W1Na06IDnaMDjmopv1-87" value="" style="line;strokeWidth=2;html=1;fontSize=17;fillColor=#000000;" vertex="1" parent="1">
          <mxGeometry x="340" y="155" width="30" height="10" as="geometry" />
        </mxCell>
        <mxCell id="o1W1Na06IDnaMDjmopv1-88" value="&lt;b&gt;GPe&lt;/b&gt;" style="text;html=1;align=center;verticalAlign=middle;resizable=0;points=[];autosize=1;strokeColor=none;fillColor=none;fontSize=17;" vertex="1" parent="1">
          <mxGeometry x="395" y="315" width="50" height="30" as="geometry" />
        </mxCell>
        <mxCell id="o1W1Na06IDnaMDjmopv1-89" value="&lt;b&gt;GPe&lt;/b&gt;" style="text;html=1;align=center;verticalAlign=middle;resizable=0;points=[];autosize=1;strokeColor=none;fillColor=none;fontSize=17;" vertex="1" parent="1">
          <mxGeometry x="750" y="315" width="50" height="30" as="geometry" />
        </mxCell>
        <mxCell id="o1W1Na06IDnaMDjmopv1-90" value="&lt;b&gt;Th&lt;/b&gt;" style="text;html=1;align=center;verticalAlign=middle;resizable=0;points=[];autosize=1;strokeColor=none;fillColor=none;fontSize=17;" vertex="1" parent="1">
          <mxGeometry x="442" y="565" width="40" height="30" as="geometry" />
        </mxCell>
        <mxCell id="o1W1Na06IDnaMDjmopv1-91" value="&lt;b&gt;GPi&lt;/b&gt;" style="text;html=1;align=center;verticalAlign=middle;resizable=0;points=[];autosize=1;strokeColor=none;fillColor=none;fontSize=17;" vertex="1" parent="1">
          <mxGeometry x="190" y="410" width="40" height="30" as="geometry" />
        </mxCell>
        <mxCell id="o1W1Na06IDnaMDjmopv1-92" value="&lt;b&gt;GPi&lt;/b&gt;" style="text;html=1;align=center;verticalAlign=middle;resizable=0;points=[];autosize=1;strokeColor=none;fillColor=none;fontSize=17;" vertex="1" parent="1">
          <mxGeometry x="310" y="410" width="40" height="30" as="geometry" />
        </mxCell>
        <mxCell id="o1W1Na06IDnaMDjmopv1-93" value="&lt;b&gt;STN&lt;/b&gt;" style="text;html=1;align=center;verticalAlign=middle;resizable=0;points=[];autosize=1;strokeColor=none;fillColor=none;fontSize=17;" vertex="1" parent="1">
          <mxGeometry x="745" y="455" width="50" height="30" as="geometry" />
        </mxCell>
        <mxCell id="o1W1Na06IDnaMDjmopv1-94" value="" style="endArrow=classic;html=1;rounded=0;fontSize=17;strokeWidth=2;exitX=0.5;exitY=0;exitDx=0;exitDy=0;entryX=0.5;entryY=1;entryDx=0;entryDy=0;" edge="1" parent="1" source="o1W1Na06IDnaMDjmopv1-58" target="o1W1Na06IDnaMDjmopv1-41">
          <mxGeometry width="50" height="50" relative="1" as="geometry">
            <mxPoint x="500" y="380" as="sourcePoint" />
            <mxPoint x="550" y="330" as="targetPoint" />
          </mxGeometry>
        </mxCell>
        <mxCell id="o1W1Na06IDnaMDjmopv1-95" value="" style="endArrow=classic;html=1;rounded=0;fontSize=17;strokeWidth=2;exitX=0.5;exitY=0;exitDx=0;exitDy=0;entryX=0.5;entryY=1;entryDx=0;entryDy=0;" edge="1" parent="1" source="o1W1Na06IDnaMDjmopv1-59" target="o1W1Na06IDnaMDjmopv1-41">
          <mxGeometry width="50" height="50" relative="1" as="geometry">
            <mxPoint x="710" y="470" as="sourcePoint" />
            <mxPoint x="770" y="400" as="targetPoint" />
          </mxGeometry>
        </mxCell>
        <mxCell id="o1W1Na06IDnaMDjmopv1-96" value="" style="endArrow=classic;html=1;rounded=0;fontSize=17;strokeWidth=2;exitX=0.5;exitY=0;exitDx=0;exitDy=0;entryX=0.5;entryY=1;entryDx=0;entryDy=0;" edge="1" parent="1" source="o1W1Na06IDnaMDjmopv1-57" target="o1W1Na06IDnaMDjmopv1-40">
          <mxGeometry width="50" height="50" relative="1" as="geometry">
            <mxPoint x="720" y="480" as="sourcePoint" />
            <mxPoint x="780" y="410" as="targetPoint" />
          </mxGeometry>
        </mxCell>
        <mxCell id="o1W1Na06IDnaMDjmopv1-97" value="" style="endArrow=classic;html=1;rounded=0;fontSize=17;strokeWidth=2;entryX=0.5;entryY=1;entryDx=0;entryDy=0;" edge="1" parent="1" target="o1W1Na06IDnaMDjmopv1-39">
          <mxGeometry width="50" height="50" relative="1" as="geometry">
            <mxPoint x="670" y="460" as="sourcePoint" />
            <mxPoint x="790" y="420" as="targetPoint" />
          </mxGeometry>
        </mxCell>
        <mxCell id="o1W1Na06IDnaMDjmopv1-98" value="" style="endArrow=classic;html=1;rounded=0;fontSize=17;strokeWidth=2;exitX=0.5;exitY=0;exitDx=0;exitDy=0;entryX=1;entryY=1;entryDx=0;entryDy=0;" edge="1" parent="1" source="o1W1Na06IDnaMDjmopv1-56" target="o1W1Na06IDnaMDjmopv1-33">
          <mxGeometry width="50" height="50" relative="1" as="geometry">
            <mxPoint x="740" y="500" as="sourcePoint" />
            <mxPoint x="800" y="430" as="targetPoint" />
          </mxGeometry>
        </mxCell>
        <mxCell id="o1W1Na06IDnaMDjmopv1-99" value="" style="endArrow=classic;html=1;rounded=0;fontSize=17;strokeWidth=2;exitX=0.5;exitY=0;exitDx=0;exitDy=0;entryX=0.5;entryY=1;entryDx=0;entryDy=0;" edge="1" parent="1" source="o1W1Na06IDnaMDjmopv1-56" target="o1W1Na06IDnaMDjmopv1-32">
          <mxGeometry width="50" height="50" relative="1" as="geometry">
            <mxPoint x="750" y="510" as="sourcePoint" />
            <mxPoint x="810" y="440" as="targetPoint" />
          </mxGeometry>
        </mxCell>
        <mxCell id="o1W1Na06IDnaMDjmopv1-100" value="" style="edgeStyle=elbowEdgeStyle;elbow=vertical;endArrow=classic;html=1;rounded=0;fontSize=17;strokeWidth=2;exitX=0.313;exitY=0.667;exitDx=0;exitDy=0;exitPerimeter=0;entryX=0.5;entryY=1;entryDx=0;entryDy=0;" edge="1" parent="1" source="o1W1Na06IDnaMDjmopv1-54" target="o1W1Na06IDnaMDjmopv1-52">
          <mxGeometry width="50" height="50" relative="1" as="geometry">
            <mxPoint x="500" y="380" as="sourcePoint" />
            <mxPoint x="550" y="330" as="targetPoint" />
            <Array as="points">
              <mxPoint x="540" y="520" />
            </Array>
          </mxGeometry>
        </mxCell>
        <mxCell id="o1W1Na06IDnaMDjmopv1-102" value="" style="edgeStyle=elbowEdgeStyle;elbow=vertical;endArrow=classic;html=1;rounded=0;fontSize=17;strokeWidth=2;entryX=0.5;entryY=1;entryDx=0;entryDy=0;" edge="1" parent="1" target="o1W1Na06IDnaMDjmopv1-53">
          <mxGeometry width="50" height="50" relative="1" as="geometry">
            <mxPoint x="640" y="480" as="sourcePoint" />
            <mxPoint x="550" y="330" as="targetPoint" />
            <Array as="points">
              <mxPoint x="550" y="520" />
            </Array>
          </mxGeometry>
        </mxCell>
        <mxCell id="o1W1Na06IDnaMDjmopv1-104" value="" style="edgeStyle=elbowEdgeStyle;elbow=horizontal;endArrow=classic;html=1;rounded=0;fontSize=17;strokeWidth=2;" edge="1" parent="1">
          <mxGeometry width="50" height="50" relative="1" as="geometry">
            <mxPoint x="630" y="580" as="sourcePoint" />
            <mxPoint x="471" y="150" as="targetPoint" />
            <Array as="points">
              <mxPoint x="811" y="230" />
            </Array>
          </mxGeometry>
        </mxCell>
      </root>
    </mxGraphModel>
  </diagram>
</mxfile>
